<!DOCTYPE svg PUBLIC "-//W3C//DTD SVG 1.1//EN" "http://www.w3.org/Graphics/SVG/1.1/DTD/svg11.dtd">
<!-- Uploaded to: SVG Repo, www.svgrepo.com, Transformed by: SVG Repo Mixer Tools -->
<svg fill="#1c71d8" width="800px" height="800px" viewBox="-2.4 -2.4 28.80 28.80" xmlns="http://www.w3.org/2000/svg" stroke="#1c71d8" stroke-width="0.00024000000000000003">
<g id="SVGRepo_bgCarrier" stroke-width="0" transform="translate(6.72,6.72), scale(0.44)">
<rect x="-2.4" y="-2.4" width="28.80" height="28.80" rx="14.4" fill="#ffffff" strokewidth="0"/>
</g>
<g id="SVGRepo_tracerCarrier" stroke-linecap="round" stroke-linejoin="round"/>
<g id="SVGRepo_iconCarrier"> <g data-name="Layer 2"> <g data-name="menu-arrow-circle"> <rect width="24" height="24" transform="rotate(180 12 12)" opacity="0"/> <path d="M12 2a10 10 0 1 0 10 10A10 10 0 0 0 12 2zm0 16a1 1 0 1 1 1-1 1 1 0 0 1-1 1zm1-5.16V14a1 1 0 0 1-2 0v-2a1 1 0 0 1 1-1 1.5 1.5 0 1 0-1.5-1.5 1 1 0 0 1-2 0 3.5 3.5 0 1 1 4.5 3.34z"/> </g> </g> </g>
</svg>